<?xml version="1.0" encoding="utf-8"?>
<!-- Generator: Adobe Illustrator 15.1.0, SVG Export Plug-In . SVG Version: 6.00 Build 0)  -->
<!DOCTYPE svg PUBLIC "-//W3C//DTD SVG 1.1//EN" "http://www.w3.org/Graphics/SVG/1.1/DTD/svg11.dtd">
<svg version="1.1" id="Layer_1" xmlns="http://www.w3.org/2000/svg" xmlns:xlink="http://www.w3.org/1999/xlink" x="0px" y="0px"
	 width="595.3px" height="556.5px" viewBox="0 -3.9 595.3 556.5" enable-background="new 0 -3.9 595.3 556.5" xml:space="preserve">
<g>
	<path d="M13.4-3.9l87.8,43.2l10.4,53.6h483.7l-61,256l-375,1.5l7.4,38.7h348.2v31.3H141.4l-67-360.1L0,24.4L13.4-3.9z M117.6,124.1
		l37.2,195l354.2-1.5l47.6-193.5H117.6z"/>
	<path d="M238.1,430.6c34.2,0,61,26.8,61,61c0,34.2-26.8,61-61,61c-34.2,0-62.5-26.8-62.5-61C175.6,457.4,203.9,430.6,238.1,430.6z
		 M238.1,460.4c-16.4,0-31.3,14.9-31.3,31.3c0,16.4,14.9,29.8,31.3,29.8s29.8-13.4,29.8-29.8C267.9,475.3,254.5,460.4,238.1,460.4z"
		/>
	<path d="M424.1,430.6c34.2,0,61,26.8,61,61c0,34.2-26.8,61-61,61c-34.2,0-61-26.8-61-61C363.1,457.4,389.9,430.6,424.1,430.6z
		 M424.1,460.4c-16.4,0-29.8,14.9-29.8,31.3c0,16.4,13.4,29.8,29.8,29.8c16.4,0,31.3-13.4,31.3-29.8
		C455.4,475.3,440.5,460.4,424.1,460.4z"/>
</g>
</svg>
