<?xml version="1.0" encoding="utf-8"?>
<!-- Generator: Adobe Illustrator 15.1.0, SVG Export Plug-In . SVG Version: 6.00 Build 0)  -->
<!DOCTYPE svg PUBLIC "-//W3C//DTD SVG 1.1//EN" "http://www.w3.org/Graphics/SVG/1.1/DTD/svg11.dtd">
<svg version="1.1" id="Layer_1" xmlns="http://www.w3.org/2000/svg" xmlns:xlink="http://www.w3.org/1999/xlink" x="0px" y="0px"
	 width="569.2px" height="424.1px" viewBox="13 134.5 569.2 424.1" enable-background="new 13 134.5 569.2 424.1"
	 xml:space="preserve">
<g>
	<g>
		<path fill="#333333" d="M567.4,558.6H27.9c-7.4,0-14.9-5.6-14.9-14.9V149.3c0-7.4,5.6-14.9,14.9-14.9h539.5
			c7.4,0,14.9,5.6,14.9,14.9v396.2C582.3,553,574.8,558.6,567.4,558.6z M42.8,530.7h511.6V162.4H42.8V530.7z"/>
	</g>
	<g>
		<path fill="#333333" d="M297.6,441.4c-3.7,0-7.4-1.9-9.3-3.7l-269.7-279c-3.7-3.7-5.6-11.2-3.7-14.9c1.9-5.6,7.4-9.3,13-9.3h537.6
			c5.6,0,11.2,3.7,13,9.3c1.9,5.6,1.9,11.2-3.7,14.9l-269.7,279C305.1,439.5,301.4,441.4,297.6,441.4z M61.4,162.4l236.3,245.6
			l236.3-245.6H61.4z"/>
	</g>
</g>
</svg>
