<?xml version="1.0" encoding="utf-8"?>
<!-- Generator: Adobe Illustrator 15.1.0, SVG Export Plug-In . SVG Version: 6.00 Build 0)  -->
<!DOCTYPE svg PUBLIC "-//W3C//DTD SVG 1.1//EN" "http://www.w3.org/Graphics/SVG/1.1/DTD/svg11.dtd">
<svg version="1.1"
	 id="Layer_1" xmlns:inkscape="http://www.inkscape.org/namespaces/inkscape" xmlns:rdf="http://www.w3.org/1999/02/22-rdf-syntax-ns#" xmlns:cc="http://creativecommons.org/ns#" xmlns:dc="http://purl.org/dc/elements/1.1/" xmlns:svg="http://www.w3.org/2000/svg" xmlns:sodipodi="http://sodipodi.sourceforge.net/DTD/sodipodi-0.dtd"
	 xmlns="http://www.w3.org/2000/svg" xmlns:xlink="http://www.w3.org/1999/xlink" x="0px" y="0px" width="523.8px" height="523.8px"
	 viewBox="35.7 84.6 523.8 523.8" enable-background="new 35.7 84.6 523.8 523.8" xml:space="preserve">
<g transform="translate(0,-952.36218)">
	<path fill="#333333" d="M297.6,1037c-144.5,0-261.9,117.4-261.9,261.9c0,144.5,117.4,261.9,261.9,261.9
		c144.5,0,261.9-117.4,261.9-261.9C559.6,1154.4,442.2,1037,297.6,1037z M297.6,1060.8c131.6,0,238.1,106.5,238.1,238.1
		c0,131.6-106.5,238.1-238.1,238.1S59.5,1430.5,59.5,1298.9C59.5,1167.3,166,1060.8,297.6,1060.8z M333.4,1126.3
		c-22.4,0-44.5,6.6-61.4,20.6c-16.9,14-27.9,35.9-27.9,62.7v41.7h-29.8c-6.6,0-11.9,5.3-11.9,11.9v60.1c0,6.6,5.3,11.9,11.9,11.9
		c0.1,0,0.1,0,0.2,0l29.6-0.4v148.6c0,6.6,5.3,11.9,11.9,11.9h59.5c6.6,0,11.9-5.3,11.9-11.9v-148.8H375c6.6,0,11.9-5.3,11.9-11.9
		v-59.5c0-6.6-5.3-11.9-11.9-11.9h-47.6v-41.7H375c6.6,0,11.9-5.3,11.9-11.9v-59.5c0-6.6-5.3-11.9-11.9-11.9H333.4z M333.4,1150.1
		h29.8v35.7h-47.6c-6.6,0-11.9,5.3-11.9,11.9v65.5c0,6.6,5.3,11.9,11.9,11.9h47.6v35.7h-47.6c-6.6,0-11.9,5.3-11.9,11.9v148.8h-35.7
		v-148.8c0-6.6-5.3-11.9-11.9-11.9c-0.1,0-0.1,0-0.2,0l-29.6,0.4v-36.1H256c6.6,0,11.9-5.3,11.9-11.9v-53.6
		c0-20.6,7.6-34.6,19.3-44.5C299,1155.3,315.7,1150.1,333.4,1150.1z"/>
</g>
</svg>
