<?xml version="1.0" encoding="utf-8"?>
<!-- Generator: Adobe Illustrator 15.1.0, SVG Export Plug-In . SVG Version: 6.00 Build 0)  -->
<!DOCTYPE svg PUBLIC "-//W3C//DTD SVG 1.1//EN" "http://www.w3.org/Graphics/SVG/1.1/DTD/svg11.dtd">
<svg version="1.1" id="Layer_1" xmlns="http://www.w3.org/2000/svg" xmlns:xlink="http://www.w3.org/1999/xlink" x="0px" y="0px"
	 width="558px" height="558.1px" viewBox="18.6 67.5 558 558.1" enable-background="new 18.6 67.5 558 558.1" xml:space="preserve">
<title>Socialmedia Iconset-02</title>
<path d="M458.7,625.6H136.5c-65.1,0-117.9-52.8-117.9-117.9V185.4c0-65.1,52.8-117.9,117.9-117.9h322.2
	c65.1,0,117.9,52.8,117.9,117.9v322.2C576.7,572.8,523.9,625.6,458.7,625.6z M136.5,104.7c-44.6,0-80.7,36.1-80.7,80.7v322.2
	c0,44.6,36.1,80.7,80.7,80.7l0,0h322.2c44.6,0,80.7-36.1,80.7-80.7l0,0V185.4c0-44.6-36.1-80.7-80.7-80.7H136.5z"/>
<path d="M297.6,486.6c-77.4,0-140.1-62.7-140.1-140.1c0-77.4,62.7-140.1,140.1-140.1c77.4,0,140.1,62.7,140.1,140.1
	C437.6,423.9,375,486.5,297.6,486.6z M297.6,243.5c-56.8,0-102.9,46.1-102.9,102.9c0,56.8,46.1,102.9,102.9,102.9
	c56.7,0,102.8-45.9,102.9-102.7c-0.1-56.8-46.1-102.8-102.9-102.9V243.5z"/>
<path d="M455,233.1c-26.2,0.1-47.5-21.1-47.6-47.3c-0.1-26.2,21.1-47.5,47.3-47.6c26.2-0.1,47.5,21.1,47.6,47.3c0,0.1,0,0.1,0,0.2
	C502.2,211.7,481.1,232.9,455,233.1z M455,156.6c-15.9-0.1-28.9,12.7-29,28.6c-0.1,15.9,12.7,28.9,28.6,29
	c15.9,0.1,28.9-12.7,29-28.6C483.7,169.7,470.9,156.8,455,156.6z"/>
</svg>
