<?xml version="1.0" encoding="utf-8"?>
<!-- Generator: Adobe Illustrator 15.1.0, SVG Export Plug-In . SVG Version: 6.00 Build 0)  -->
<!DOCTYPE svg PUBLIC "-//W3C//DTD SVG 1.1//EN" "http://www.w3.org/Graphics/SVG/1.1/DTD/svg11.dtd">
<svg version="1.1" id="Layer_1" xmlns="http://www.w3.org/2000/svg" xmlns:xlink="http://www.w3.org/1999/xlink" x="0px" y="0px"
	 width="352.5px" height="493.4px" viewBox="121.2 100 352.5 493.4" enable-background="new 121.2 100 352.5 493.4"
	 xml:space="preserve">
<path d="M422.6,339.9c48.2-69.2,31.2-164.3-38-212.5c-69.2-48.2-164.3-31.2-212.5,38c-36.7,52.7-36.5,122.7,0.5,175.1
	c-34.5,42.1-51.4,121.2-51.4,241v11.9h352.5v-11.9C473.8,460.1,457.1,380.8,422.6,339.9z M297.6,123.4
	c71.3,0,129.2,57.8,129.2,129.2c0,71.4-57.8,129.2-129.2,129.2c-71.4,0-129.2-57.8-129.2-129.2C168.6,181.3,226.3,123.5,297.6,123.4
	z M145.1,569.9c1-103,15.5-173.6,43.2-210.7c58.6,60.3,155.1,61.7,215.4,3.1c1.3-1.2,2.5-2.5,3.8-3.8
	c27.4,35.7,41.7,106.7,42.8,211.1L145.1,569.9z"/>
</svg>
